<svg version="1.2" xmlns="http://www.w3.org/2000/svg" viewBox="0 0 28 28" width="21" height="21">
	<title>checkmark-circle-02</title>
	<style>
		.s0 { opacity: .4;fill: #7950ff } 
		.s1 { fill: #7950ff } 
	</style>
	<path class="s0" d="m1.5 14c0 6.9 5.6 12.5 12.5 12.5 6.9 0 12.5-5.6 12.5-12.5 0-6.9-5.6-12.5-12.5-12.5-6.9 0-12.5 5.6-12.5 12.5z"/>
	<path class="s1" d="m19.7 9.4c0.3 0.5 0.1 1.2-0.5 1.5-1.6 0.9-3.1 2.7-4.2 4.5-0.6 0.9-1 1.7-1.3 2.2q-0.3 0.5-0.4 0.7l-0.1 0.3c-0.2 0.4-0.6 0.6-1 0.6-0.4 0.1-0.8-0.1-1.1-0.5-0.3-0.6-0.9-1.2-1.4-1.6q-0.4-0.3-0.7-0.5l-0.2-0.1c-0.6-0.3-0.8-1.1-0.5-1.6 0.3-0.6 1.1-0.8 1.6-0.5l0.4 0.3q0.3 0.2 0.8 0.6 0.4 0.3 0.8 0.7 0.5-0.8 1.1-1.9c1.2-1.8 3-4 5.1-5.2 0.6-0.3 1.3-0.1 1.6 0.5z"/>
</svg>